<?xml version="1.0" encoding="utf-8"?>
<!-- Generator: Adobe Illustrator 16.0.0, SVG Export Plug-In . SVG Version: 6.00 Build 0)  -->
<!DOCTYPE svg PUBLIC "-//W3C//DTD SVG 1.1//EN" "http://www.w3.org/Graphics/SVG/1.1/DTD/svg11.dtd">
<svg version="1.1" xmlns="http://www.w3.org/2000/svg" xmlns:xlink="http://www.w3.org/1999/xlink" x="0px" y="0px" width="256px"
	 height="43px" viewBox="0 0 256 43" enable-background="new 0 0 256 43" xml:space="preserve">
<g id="Катерина_Беликова_1_" enable-background="new    ">
	<g id="Катерина_Беликова">
		<g>
			<path fill="#27252E" d="M13.396,8.841l7.488-8.008h-4.16L9.887,8.607V0.833H6.351v16.9h3.536v-8.32l7.28,8.32h4.472l-8.242-8.71
				V8.841z M30.671,0.313l-8.346,17.42h3.562l1.352-2.938h6.968l1.378,2.938h3.562l-8.32-17.42H30.671z M28.331,12.195l2.392-5.278
				l2.392,5.278H28.331z M37.327,3.823h5.148v13.91h3.536V3.823h5.148v-2.99H37.327V3.823z M56.156,10.583h6.838V7.724h-6.838v-3.9
				h8.268v-2.99H52.62v16.9h12.064v-2.99h-8.528V10.583z M72.669,0.833h-6.136v16.9h3.536v-6.006h2.6
				c2.045,0,3.64-0.464,4.784-1.392c1.144-0.927,1.716-2.31,1.716-4.146c0-1.803-0.563-3.146-1.69-4.03
				C76.352,1.275,74.749,0.833,72.669,0.833z M74.762,8.243c-0.581,0.382-1.582,0.572-3.003,0.572h-1.69V3.771h1.69
				c1.421,0,2.422,0.169,3.003,0.507c0.581,0.338,0.871,0.975,0.871,1.911C75.633,7.178,75.342,7.862,74.762,8.243z M84.153,10.947
				V0.833h-3.536v17.42h0.13L92.135,7.567v10.166h3.536V0.313h-0.13L84.153,10.947z M109.313,7.724h-7.618V0.833h-3.536v16.9h3.536
				v-7.15h7.618v7.15h3.51v-16.9h-3.51V7.724z M122.519,0.313h-0.156l-8.346,17.42h3.562l1.352-2.938h6.968l1.378,2.938h3.562
				L122.519,0.313z M120.022,12.195l2.392-5.278l2.392,5.278H120.022z"/>
		</g>
	</g>
</g>
<g id="Катерина_Беликова_copy_1_" enable-background="new    ">
	<g id="Катерина_Беликова_copy">
		<g>
			<path fill="#75747F" d="M143.345,7.619h-4.29V2.133h8.918v-1.3h-10.374v16.9h5.746c4.073,0,6.11-1.698,6.11-5.096
				c0-1.769-0.517-3.047-1.547-3.835C146.876,8.014,145.355,7.619,143.345,7.619z M146.517,15.835
				c-0.798,0.434-1.941,0.65-3.433,0.65h-4.029V8.841h4.029c1.873,0,3.199,0.339,3.979,1.015c0.624,0.589,0.936,1.517,0.936,2.782
				C147.998,14.267,147.504,15.333,146.517,15.835z M153.121,9.673h7.357v-1.3h-7.357v-6.24h8.787v-1.3h-10.244v16.9h10.504v-1.3
				h-9.047V9.673z M167.301,7.151c0,6.066-0.893,9.265-2.678,9.594c-0.226,0.052-0.598,0.078-1.118,0.078v1.274
				c0.624,0,1.058-0.018,1.3-0.053c1.283-0.242,2.193-1.048,2.73-2.418c0.225-0.571,0.45-1.248,0.676-2.027
				c0.156-0.59,0.277-1.431,0.363-2.522c0.053-0.572,0.096-1.395,0.131-2.47c0.018-0.434,0.025-1.266,0.025-2.496V2.133h7.696
				v15.601h1.456v-16.9h-10.582V7.151z M182.519,14.587V0.833h-1.456v17.42h0.131l11.647-14.273v13.754h1.456V0.313h-0.131
				L182.519,14.587z M200.688,8.945l7.93-8.112h-1.924l-7.748,8.139V0.833h-1.456v16.9h1.456V9.205l8.45,8.528h2.028l-8.736-8.606
				V8.945z M217.08,0.443c-2.322,0-4.186,0.798-5.59,2.392c-1.404,1.578-2.105,3.728-2.105,6.448c0,2.722,0.701,4.88,2.105,6.474
				c1.404,1.578,3.268,2.366,5.59,2.366s4.187-0.788,5.59-2.366c1.404-1.594,2.106-3.752,2.106-6.474
				c0-2.721-0.702-4.87-2.106-6.448C221.267,1.241,219.402,0.443,217.08,0.443z M221.553,14.743c-1.109,1.353-2.6,2.028-4.473,2.028
				c-1.837,0-3.328-0.676-4.472-2.028c-1.144-1.369-1.716-3.188-1.716-5.46c0-2.288,0.572-4.108,1.716-5.46s2.635-2.028,4.472-2.028
				c1.855,0,3.346,0.677,4.473,2.028c1.144,1.352,1.716,3.172,1.716,5.46S222.696,13.392,221.553,14.743z M236.055,8.919v-0.13
				c0.764-0.242,1.369-0.719,1.82-1.43s0.676-1.499,0.676-2.366c0-1.352-0.451-2.383-1.352-3.094
				c-0.901-0.711-2.236-1.066-4.004-1.066h-6.006v16.9h6.552c1.803,0,3.188-0.42,4.16-1.261c0.97-0.841,1.456-1.98,1.456-3.419
				c0-0.971-0.304-1.863-0.91-2.679C237.84,9.561,237.043,9.075,236.055,8.919z M228.646,2.003h4.628
				c2.564,0,3.848,0.997,3.848,2.99c0,1.092-0.32,1.941-0.962,2.548c-0.642,0.607-1.595,0.91-2.86,0.91h-4.653V2.003z
				 M236.836,15.614c-0.711,0.633-1.717,0.949-3.017,0.949h-5.174V9.621h5.174c1.317,0,2.327,0.309,3.028,0.923
				c0.703,0.616,1.054,1.452,1.054,2.51C237.901,14.128,237.546,14.981,236.836,15.614z M247.938,0.313h-0.156l-7.514,17.42h1.533
				l1.795-4.238h8.58l1.819,4.238h1.534L247.938,0.313z M244.09,12.325l3.77-8.944l3.822,8.944H244.09z"/>
		</g>
	</g>
</g>
<g id="Rectangle_9_1_" enable-background="new    ">
	<g id="Rectangle_9">
		<g>
			<rect x="6" y="25" fill="#C0C3CE" width="125" height="18"/>
		</g>
	</g>
</g>
<g id="мастер_макияжа_1_" enable-background="new    ">
	<g id="мастер_макияжа">
		<g>
			<path fill="#5C5B65" d="M17.944,30.014l-2.646,5.138l-2.66-5.138h-0.084l-1.246,6.72h1.022l0.728-4.158l2.198,4.396h0.07
				l2.212-4.396l0.7,4.158h1.036l-1.246-6.72H17.944z M24.418,30.083c-0.924,0-1.754,0.309-2.492,0.924l0.518,0.729
				c0.606-0.495,1.255-0.742,1.946-0.742c0.476,0,0.835,0.154,1.078,0.462c0.243,0.309,0.354,0.719,0.336,1.232
				c-0.569,0-1.115,0.027-1.638,0.084c-0.569,0.047-1.087,0.182-1.554,0.406c-0.784,0.336-1.176,0.951-1.176,1.848
				c0,0.569,0.196,1.031,0.588,1.386c0.392,0.354,0.91,0.532,1.554,0.532c0.915,0,1.689-0.331,2.324-0.994l0.014,0.784h0.966v-4.019
				C26.882,30.961,26.061,30.083,24.418,30.083z M25.804,35.123c-0.607,0.616-1.251,0.924-1.932,0.924
				c-0.42,0-0.742-0.093-0.966-0.279s-0.336-0.448-0.336-0.784c0-0.346,0.079-0.613,0.238-0.805s0.471-0.348,0.938-0.47
				c0.485-0.14,1.171-0.21,2.058-0.21V35.123z M32.793,35.991c-0.663,0-1.195-0.238-1.596-0.714
				c-0.401-0.467-0.602-1.055-0.602-1.764c0-0.71,0.196-1.303,0.588-1.778c0.411-0.477,0.947-0.714,1.61-0.714
				c0.812,0,1.428,0.299,1.848,0.896l0.7-0.615c-0.606-0.812-1.456-1.219-2.548-1.219c-0.98,0-1.773,0.322-2.38,0.966
				c-0.598,0.626-0.896,1.452-0.896,2.479s0.298,1.853,0.896,2.478c0.597,0.626,1.391,0.938,2.38,0.938
				c1.129,0,1.997-0.406,2.604-1.218l-0.714-0.63C34.282,35.692,33.651,35.991,32.793,35.991z M37.712,31.203h2.212v5.53h1.078
				v-5.53h2.226v-0.91h-5.516V31.203z M48.35,30.083c-0.868,0-1.596,0.317-2.184,0.952c-0.588,0.626-0.882,1.451-0.882,2.479
				c0,1.055,0.285,1.89,0.854,2.506s1.367,0.924,2.394,0.924c1.195,0,2.109-0.415,2.744-1.246l-0.658-0.616
				c-0.523,0.616-1.208,0.924-2.058,0.924c-0.635,0-1.153-0.202-1.554-0.608c-0.401-0.406-0.616-0.936-0.644-1.589h5.054v-0.322
				c0-1.073-0.264-1.908-0.791-2.506C50.097,30.382,49.339,30.083,48.35,30.083z M46.404,32.967
				c0.084-0.588,0.306-1.059,0.665-1.413c0.359-0.355,0.795-0.532,1.309-0.532c1.185,0,1.834,0.648,1.946,1.945H46.404z
				 M57.48,30.083c-0.504,0-0.971,0.124-1.4,0.371c-0.429,0.248-0.766,0.604-1.008,1.071v-1.232h-0.98v9.017h1.078v-3.599
				c0.215,0.393,0.525,0.693,0.931,0.903s0.866,0.315,1.379,0.315c0.915,0,1.643-0.309,2.184-0.925
				c0.551-0.634,0.826-1.465,0.826-2.491c0-1.027-0.275-1.857-0.826-2.492C59.123,30.396,58.395,30.083,57.48,30.083z
				 M58.825,35.291c-0.383,0.467-0.901,0.7-1.554,0.7c-0.672,0-1.199-0.227-1.582-0.679c-0.383-0.453-0.574-1.053-0.574-1.799
				c0.019-0.737,0.224-1.337,0.616-1.8c0.392-0.462,0.905-0.692,1.54-0.692c0.663,0,1.181,0.237,1.554,0.714
				c0.382,0.485,0.574,1.078,0.574,1.778C59.398,34.213,59.207,34.806,58.825,35.291z M73.608,30.014l-2.646,5.138l-2.66-5.138
				h-0.084l-1.246,6.72h1.022l0.728-4.158l2.198,4.396h0.07l2.212-4.396l0.7,4.158h1.036l-1.246-6.72H73.608z M80.082,30.083
				c-0.924,0-1.755,0.309-2.492,0.924l0.518,0.729c0.606-0.495,1.255-0.742,1.946-0.742c0.476,0,0.835,0.154,1.078,0.462
				c0.242,0.309,0.354,0.719,0.336,1.232c-0.569,0-1.116,0.027-1.638,0.084c-0.569,0.047-1.087,0.182-1.554,0.406
				c-0.784,0.336-1.176,0.951-1.176,1.848c0,0.569,0.196,1.031,0.588,1.386s0.91,0.532,1.554,0.532c0.915,0,1.689-0.331,2.324-0.994
				l0.014,0.784h0.966v-4.019C82.546,30.961,81.725,30.083,80.082,30.083z M81.468,35.123c-0.607,0.616-1.251,0.924-1.932,0.924
				c-0.42,0-0.742-0.093-0.966-0.279c-0.224-0.187-0.336-0.448-0.336-0.784c0-0.346,0.079-0.613,0.238-0.805s0.471-0.348,0.938-0.47
				c0.485-0.14,1.171-0.21,2.058-0.21V35.123z M87.868,33.331l2.954-3.038H89.45l-2.786,3.024v-3.024h-1.078v6.44h1.078v-3.248
				l2.968,3.248h1.414l-3.178-3.318V33.331z M94.561,34.745v-4.452h-1.078v6.721h0.084l4.382-4.732v4.452h1.078v-6.72h-0.084
				L94.561,34.745z M102.687,30.812c-0.448,0.345-0.672,0.854-0.672,1.525c0,0.485,0.13,0.89,0.392,1.211
				c0.261,0.322,0.602,0.525,1.022,0.609v0.056l-1.918,2.521h1.288l1.736-2.422h1.386v2.422h1.078v-6.44h-2.688
				C103.667,30.293,103.125,30.466,102.687,30.812z M105.92,31.203v2.282h-1.386c-0.924,0-1.386-0.383-1.386-1.148
				c0-0.756,0.518-1.134,1.554-1.134H105.92z M115.565,33.317l2.702-3.024h-1.344l-2.45,3.024v-3.024h-1.078v3.024l-2.45-3.024
				h-1.33l2.702,3.024v0.084l-2.856,3.332h1.414l2.52-3.248v3.248h1.078v-3.248l2.52,3.248h1.428l-2.856-3.332V33.317z
				 M123.304,30.083c-0.924,0-1.755,0.309-2.492,0.924l0.518,0.729c0.607-0.495,1.255-0.742,1.946-0.742
				c0.476,0,0.835,0.154,1.078,0.462c0.242,0.309,0.354,0.719,0.336,1.232c-0.569,0-1.116,0.027-1.638,0.084
				c-0.569,0.047-1.087,0.182-1.554,0.406c-0.784,0.336-1.176,0.951-1.176,1.848c0,0.569,0.196,1.031,0.588,1.386
				c0.392,0.354,0.91,0.532,1.554,0.532c0.915,0,1.689-0.331,2.324-0.994l0.014,0.784h0.966v-4.019
				C125.769,30.961,124.947,30.083,123.304,30.083z M124.69,35.123c-0.607,0.616-1.251,0.924-1.932,0.924
				c-0.42,0-0.742-0.093-0.966-0.279c-0.224-0.187-0.336-0.448-0.336-0.784c0-0.346,0.079-0.613,0.238-0.805s0.471-0.348,0.938-0.47
				c0.485-0.14,1.171-0.21,2.058-0.21V35.123z"/>
		</g>
	</g>
</g>
<g id="Rectangle_10_1_" enable-background="new    ">
	<g id="Rectangle_10">
		<g>
			<rect y="1" fill="#27252E" width="1" height="42"/>
		</g>
	</g>
</g>
</svg>
